<svg xmlns="http://www.w3.org/2000/svg" viewBox="0 0 300 600" width="300" height="600">
  <!-- Pink Ruffle Dress -->
  <!-- Shoulder straps -->
  <rect x="90" y="20" width="8" height="60" fill="#ec4899" rx="4"/>
  <rect x="202" y="20" width="8" height="60" fill="#ec4899" rx="4"/>
  <!-- Strap ties -->
  <path d="M 85 25 Q 75 15 65 25 Q 75 35 85 25" fill="#ec4899"/>
  <path d="M 215 25 Q 225 15 235 25 Q 225 35 215 25" fill="#ec4899"/>
  
  <!-- Main bodice -->
  <rect x="85" y="80" width="130" height="120" fill="#ec4899" rx="10"/>
  <!-- Ruched/gathered texture on bodice -->
  <line x1="90" y1="90" x2="210" y2="90" stroke="#db2777" stroke-width="1"/>
  <line x1="90" y1="100" x2="210" y2="100" stroke="#db2777" stroke-width="1"/>
  <line x1="90" y1="110" x2="210" y2="110" stroke="#db2777" stroke-width="1"/>
  <line x1="90" y1="120" x2="210" y2="120" stroke="#db2777" stroke-width="1"/>
  <line x1="90" y1="130" x2="210" y2="130" stroke="#db2777" stroke-width="1"/>
  <line x1="90" y1="140" x2="210" y2="140" stroke="#db2777" stroke-width="1"/>
  <line x1="90" y1="150" x2="210" y2="150" stroke="#db2777" stroke-width="1"/>
  <line x1="90" y1="160" x2="210" y2="160" stroke="#db2777" stroke-width="1"/>
  <line x1="90" y1="170" x2="210" y2="170" stroke="#db2777" stroke-width="1"/>
  <line x1="90" y1="180" x2="210" y2="180" stroke="#db2777" stroke-width="1"/>
  <line x1="90" y1="190" x2="210" y2="190" stroke="#db2777" stroke-width="1"/>
  
  <!-- First ruffle layer -->
  <path d="M 70 200 Q 85 190 100 200 Q 115 190 130 200 Q 145 190 160 200 Q 175 190 190 200 Q 205 190 220 200 Q 235 190 250 200 L 240 250 Q 225 240 210 250 Q 195 240 180 250 Q 165 240 150 250 Q 135 240 120 250 Q 105 240 90 250 Q 75 240 60 250 Z" fill="#ec4899"/>
  
  <!-- Second ruffle layer -->
  <path d="M 60 250 Q 75 240 90 250 Q 105 240 120 250 Q 135 240 150 250 Q 165 240 180 250 Q 195 240 210 250 Q 225 240 240 250 Q 255 240 270 250 L 260 320 Q 245 310 230 320 Q 215 310 200 320 Q 185 310 170 320 Q 155 310 140 320 Q 125 310 110 320 Q 95 310 80 320 Q 65 310 50 320 Z" fill="#f472b6"/>
  
  <!-- Third ruffle layer (bottom) -->
  <path d="M 50 320 Q 65 310 80 320 Q 95 310 110 320 Q 125 310 140 320 Q 155 310 170 320 Q 185 310 200 320 Q 215 310 230 320 Q 245 310 260 320 Q 275 310 290 320 L 280 400 Q 265 390 250 400 Q 235 390 220 400 Q 205 390 190 400 Q 175 390 160 400 Q 145 390 130 400 Q 115 390 100 400 Q 85 390 70 400 Q 55 390 40 400 Z" fill="#ec4899"/>
  
  <!-- Ruffle edge details -->
  <path d="M 40 400 Q 55 395 70 400 Q 85 395 100 400 Q 115 395 130 400 Q 145 395 160 400 Q 175 395 190 400 Q 205 395 220 400 Q 235 395 250 400 Q 265 395 280 400" stroke="#db2777" stroke-width="2" fill="none"/>
</svg>